<?xml version="1.0" encoding="UTF-8"?>
<svg xmlns="http://www.w3.org/2000/svg" xmlns:xlink="http://www.w3.org/1999/xlink" width="386pt" height="125pt" viewBox="0 0 386 125" version="1.1">
<g id="surface1">
<rect x="0" y="0" width="386" height="125" style="fill:rgb(100%,100%,100%);fill-opacity:1;stroke:none;"/>
<path style="fill-rule:nonzero;fill:rgb(100%,100%,100%);fill-opacity:1;stroke-width:1;stroke-linecap:round;stroke-linejoin:round;stroke:rgb(0%,0%,0%);stroke-opacity:1;stroke-miterlimit:10;" d="M 287.4 447.2 L 308.4 447.2 L 308.4 468.2 L 287.4 468.2 Z M 287.4 447.2 " transform="matrix(1.25,0,0,1.25,-357.5,-461.25)"/>
<path style=" stroke:none;fill-rule:nonzero;fill:rgb(0%,0%,0%);fill-opacity:1;" d="M 12.53125 109.078125 L 12.53125 109.371094 C 12.746094 109.351562 12.824219 109.351562 12.921875 109.351562 C 13.273438 109.351562 13.449219 109.585938 13.566406 110.132812 L 13.878906 111.832031 L 13.390625 112.632812 C 13.15625 113.023438 13.058594 113.082031 12.863281 113.082031 C 12.628906 113.082031 12.492188 112.847656 12.160156 112.847656 C 11.808594 112.847656 11.554688 113.121094 11.554688 113.492188 C 11.554688 113.882812 11.828125 114.136719 12.257812 114.136719 C 12.824219 114.136719 13.078125 113.921875 13.742188 112.847656 L 14.015625 112.398438 C 14.25 113.6875 14.542969 114.136719 15.109375 114.136719 C 15.636719 114.136719 16.105469 113.765625 16.789062 112.769531 L 16.554688 112.613281 C 16.125 113.179688 16.007812 113.277344 15.8125 113.277344 C 15.597656 113.277344 15.480469 113.121094 15.382812 112.691406 L 15.03125 110.914062 C 15.382812 110.269531 15.8125 109.859375 16.066406 109.859375 C 16.320312 109.859375 16.4375 110.09375 16.710938 110.09375 C 17.042969 110.09375 17.335938 109.820312 17.335938 109.488281 C 17.335938 109.136719 17.042969 108.804688 16.691406 108.804688 C 16.164062 108.804688 15.792969 109.078125 14.914062 110.347656 C 14.738281 109.390625 14.601562 109.117188 14.386719 108.804688 Z M 12.53125 109.078125 "/>
<path style="fill-rule:nonzero;fill:rgb(40%,74.901961%,100%);fill-opacity:1;stroke-width:1;stroke-linecap:round;stroke-linejoin:round;stroke:rgb(0%,0%,0%);stroke-opacity:1;stroke-miterlimit:10;" d="M 328.225 408.4 L 349.225 408.4 L 349.225 429.4 L 328.225 429.4 Z M 328.225 408.4 " transform="matrix(1.25,0,0,1.25,-357.5,-461.25)"/>
<path style=" stroke:none;fill-rule:nonzero;fill:rgb(0%,0%,0%);fill-opacity:1;" d="M 67.097656 58.605469 L 65.007812 58.605469 L 65.007812 58.878906 C 65.632812 58.917969 65.710938 58.976562 65.710938 59.386719 C 65.710938 59.523438 65.671875 59.601562 65.535156 59.894531 L 63.796875 63.585938 L 63.425781 60.304688 C 63.386719 59.875 63.347656 59.621094 63.347656 59.484375 C 63.347656 59.054688 63.445312 58.9375 64.050781 58.878906 L 64.050781 58.605469 L 61.042969 58.605469 L 61.042969 58.859375 C 61.726562 58.957031 61.824219 59.152344 61.824219 60.050781 L 60.144531 63.585938 L 59.695312 59.660156 C 59.695312 59.601562 59.695312 59.503906 59.695312 59.445312 C 59.695312 59.09375 59.851562 58.957031 60.378906 58.878906 L 60.378906 58.605469 L 57.253906 58.605469 L 57.253906 58.859375 C 57.976562 58.996094 58.015625 59.09375 58.132812 59.894531 L 59.011719 66.320312 L 59.324219 66.320312 L 61.960938 60.832031 L 62.625 66.320312 L 62.9375 66.320312 L 66.121094 59.796875 C 66.492188 59.035156 66.628906 58.9375 67.097656 58.859375 Z M 67.097656 58.605469 "/>
<path style=" stroke:none;fill-rule:nonzero;fill:rgb(0%,0%,0%);fill-opacity:1;" d="M 68.820312 62.335938 C 67.765625 61.457031 67.53125 60.617188 67.53125 59.210938 C 67.53125 57.765625 67.765625 57.0625 68.820312 56.183594 L 68.742188 56.046875 C 67.550781 56.769531 66.886719 57.84375 66.886719 59.230469 C 66.886719 60.519531 67.53125 61.769531 68.722656 62.453125 Z M 68.820312 62.335938 "/>
<path style=" stroke:none;fill-rule:nonzero;fill:rgb(0%,0%,0%);fill-opacity:1;" d="M 71.980469 61.125 L 71.980469 61.007812 C 71.414062 61.007812 71.277344 60.871094 71.277344 60.558594 L 71.277344 56.085938 L 71.199219 56.046875 L 69.871094 56.730469 L 69.871094 56.847656 L 70.066406 56.769531 C 70.203125 56.710938 70.320312 56.671875 70.398438 56.671875 C 70.554688 56.671875 70.632812 56.789062 70.632812 57.042969 L 70.632812 60.421875 C 70.632812 60.832031 70.476562 60.988281 69.910156 61.007812 L 69.910156 61.125 Z M 71.980469 61.125 "/>
<path style=" stroke:none;fill-rule:nonzero;fill:rgb(0%,0%,0%);fill-opacity:1;" d="M 72.996094 56.183594 C 74.089844 57.023438 74.265625 57.882812 74.265625 59.289062 C 74.265625 60.753906 74.070312 61.457031 72.996094 62.335938 L 73.074219 62.453125 C 74.265625 61.730469 74.910156 60.65625 74.910156 59.269531 C 74.910156 58 74.226562 56.75 73.09375 56.046875 Z M 72.996094 56.183594 "/>
<path style=" stroke:none;fill-rule:nonzero;fill:rgb(69.803922%,85.098039%,100%);fill-opacity:1;" d="M 75.1875 101.59375 C 80.3125 106.71875 80.3125 115.03125 75.1875 120.15625 C 70.0625 125.28125 61.753906 125.28125 56.625 120.15625 C 51.5 115.03125 51.5 106.71875 56.625 101.59375 C 61.753906 96.46875 70.0625 96.46875 75.1875 101.59375 "/>
<path style="fill:none;stroke-width:1;stroke-linecap:round;stroke-linejoin:round;stroke:rgb(0%,0%,0%);stroke-opacity:1;stroke-miterlimit:10;" d="M 346.15 450.278125 C 350.25 454.375 350.25 461.025 346.15 465.125 C 342.05 469.225 335.403125 469.225 331.3 465.125 C 327.2 461.025 327.2 454.375 331.3 450.278125 C 335.403125 446.175 342.05 446.175 346.15 450.278125 " transform="matrix(1.25,0,0,1.25,-357.5,-461.25)"/>
<path style=" stroke:none;fill-rule:nonzero;fill:rgb(0%,0%,0%);fill-opacity:1;" d="M 63.664062 112.90625 L 62.863281 112.90625 L 65.480469 109.859375 L 62.863281 106.851562 L 63.722656 106.851562 L 65.910156 109.136719 L 68.175781 106.851562 L 68.957031 106.851562 L 66.300781 109.859375 L 68.957031 112.90625 L 68.097656 112.90625 L 65.910156 110.464844 Z M 63.664062 112.90625 "/>
<path style="fill-rule:nonzero;fill:rgb(100%,100%,100%);fill-opacity:1;stroke-width:1;stroke-linecap:round;stroke-linejoin:round;stroke:rgb(0%,0%,0%);stroke-opacity:1;stroke-miterlimit:10;" d="M 369.05 447.2 L 390.05 447.2 L 390.05 468.2 L 369.05 468.2 Z M 369.05 447.2 " transform="matrix(1.25,0,0,1.25,-357.5,-461.25)"/>
<path style=" stroke:none;fill-rule:nonzero;fill:rgb(0%,0%,0%);fill-opacity:1;" d="M 118.890625 109.058594 L 118.890625 108.941406 L 115.394531 108.941406 L 114.886719 110.679688 L 115.199219 110.71875 C 115.375 110.191406 115.609375 110.035156 116.019531 110.035156 L 117.542969 110.035156 L 114.261719 114.019531 L 114.554688 114.253906 C 114.632812 114.214844 114.691406 114.15625 114.769531 114.097656 C 114.925781 113.980469 115.003906 113.941406 115.121094 113.941406 C 115.355469 113.941406 115.550781 114.039062 115.960938 114.3125 C 116.507812 114.703125 116.9375 114.878906 117.40625 114.878906 C 118.089844 114.878906 118.636719 114.546875 118.636719 113.863281 C 118.636719 113.53125 118.363281 113.257812 118.050781 113.257812 C 117.738281 113.257812 117.484375 113.53125 117.484375 113.863281 C 117.484375 114.175781 117.699219 114.175781 117.699219 114.351562 C 117.699219 114.46875 117.601562 114.546875 117.464844 114.546875 C 117.132812 114.546875 116.9375 113.941406 116.703125 113.609375 C 116.410156 113.21875 116.175781 113.023438 115.726562 112.828125 Z M 118.890625 109.058594 "/>
<path style=" stroke:none;fill-rule:nonzero;fill:rgb(69.803922%,85.098039%,100%);fill-opacity:1;" d="M 177.25 101.59375 C 182.375 106.71875 182.375 115.03125 177.25 120.15625 C 172.125 125.28125 163.8125 125.28125 158.6875 120.15625 C 153.5625 115.03125 153.5625 106.71875 158.6875 101.59375 C 163.8125 96.46875 172.125 96.46875 177.25 101.59375 "/>
<path style="fill:none;stroke-width:1;stroke-linecap:round;stroke-linejoin:round;stroke:rgb(0%,0%,0%);stroke-opacity:1;stroke-miterlimit:10;" d="M 427.8 450.278125 C 431.9 454.375 431.9 461.025 427.8 465.125 C 423.7 469.225 417.05 469.225 412.95 465.125 C 408.85 461.025 408.85 454.375 412.95 450.278125 C 417.05 446.175 423.7 446.175 427.8 450.278125 " transform="matrix(1.25,0,0,1.25,-357.5,-461.25)"/>
<path style=" stroke:none;fill-rule:nonzero;fill:rgb(0%,0%,0%);fill-opacity:1;" d="M 169.851562 106.324219 L 168.992188 106.324219 L 168.230469 109.039062 L 168.054688 109.039062 C 166.003906 109.039062 164.753906 111.421875 164.753906 112.554688 C 164.753906 113.277344 165.027344 113.804688 165.613281 114 C 165.886719 114.097656 166.335938 114.117188 166.824219 114.117188 L 166.199219 116.304688 L 167.078125 116.304688 L 167.683594 114.117188 C 169.910156 114.117188 171.140625 111.890625 171.140625 110.582031 C 171.140625 109.800781 170.789062 109.390625 170.242188 109.175781 C 169.929688 109.058594 169.617188 109.039062 169.089844 109.039062 Z M 169.03125 109.273438 C 169.265625 109.273438 169.578125 109.292969 169.675781 109.351562 C 169.96875 109.527344 170.183594 109.820312 170.183594 110.328125 C 170.183594 111.246094 169.460938 113.238281 168.542969 113.707031 C 168.230469 113.863281 168.035156 113.882812 167.761719 113.882812 Z M 166.882812 113.882812 C 166.628906 113.882812 166.414062 113.863281 166.238281 113.804688 C 165.886719 113.667969 165.691406 113.335938 165.691406 112.867188 C 165.691406 111.285156 166.863281 109.273438 168.171875 109.273438 Z M 166.882812 113.882812 "/>
<path style="fill-rule:nonzero;fill:rgb(100%,100%,100%);fill-opacity:1;stroke-width:1;stroke-linecap:round;stroke-linejoin:round;stroke:rgb(0%,0%,0%);stroke-opacity:1;stroke-miterlimit:10;" d="M 450.7 447.2 L 471.7 447.2 L 471.7 468.2 L 450.7 468.2 Z M 450.7 447.2 " transform="matrix(1.25,0,0,1.25,-357.5,-461.25)"/>
<path style=" stroke:none;fill-rule:nonzero;fill:rgb(0%,0%,0%);fill-opacity:1;" d="M 221.222656 112.398438 C 220.734375 113.101562 220.519531 113.335938 220.382812 113.335938 C 220.285156 113.335938 220.1875 113.238281 220.1875 113.160156 C 220.1875 113.121094 220.1875 113.101562 220.226562 113.023438 L 220.890625 110.972656 C 221.105469 110.269531 221.222656 109.859375 221.222656 109.644531 C 221.222656 109.117188 220.910156 108.804688 220.363281 108.804688 C 219.601562 108.804688 219.074219 109.234375 217.960938 110.816406 L 219.171875 106.128906 C 218.3125 106.304688 217.746094 106.402344 216.828125 106.480469 L 216.828125 106.773438 L 217.082031 106.773438 C 217.394531 106.773438 217.550781 106.890625 217.550781 107.144531 C 217.550781 107.242188 217.511719 107.4375 217.433594 107.671875 L 215.734375 114 L 217.082031 114 C 217.667969 112.027344 217.882812 111.480469 218.429688 110.679688 C 218.917969 109.957031 219.308594 109.605469 219.621094 109.605469 C 219.757812 109.605469 219.835938 109.664062 219.835938 109.839844 C 219.835938 109.917969 219.816406 110.015625 219.757812 110.191406 L 219.542969 110.855469 C 218.976562 112.515625 218.859375 112.925781 218.859375 113.375 C 218.859375 113.824219 219.152344 114.097656 219.601562 114.097656 C 220.285156 114.097656 220.734375 113.726562 221.476562 112.574219 Z M 221.222656 112.398438 "/>
<path style="fill-rule:nonzero;fill:rgb(100%,100%,100%);fill-opacity:1;stroke-width:1;stroke-linecap:round;stroke-linejoin:round;stroke:rgb(0%,0%,0%);stroke-opacity:1;stroke-miterlimit:10;" d="M 532.35 447.2 L 553.35 447.2 L 553.35 468.2 L 532.35 468.2 Z M 532.35 447.2 " transform="matrix(1.25,0,0,1.25,-357.5,-461.25)"/>
<path style=" stroke:none;fill-rule:nonzero;fill:rgb(0%,0%,0%);fill-opacity:1;" d="M 321.394531 108.804688 C 320.632812 108.804688 319.910156 109.097656 319.34375 109.664062 C 318.660156 110.328125 318.210938 111.363281 318.210938 112.476562 C 318.210938 113.589844 319.011719 114.136719 320.066406 114.136719 C 320.808594 114.136719 321.472656 113.863281 322.039062 113.296875 C 322.722656 112.613281 323.210938 111.558594 323.210938 110.503906 C 323.210938 109.46875 322.527344 108.804688 321.453125 108.804688 Z M 321.863281 109.820312 C 321.863281 110.796875 321.453125 112.359375 320.90625 113.277344 C 320.671875 113.648438 320.398438 113.824219 320.105469 113.824219 C 319.773438 113.824219 319.558594 113.589844 319.558594 113.101562 C 319.558594 111.949219 319.988281 110.230469 320.671875 109.46875 C 320.886719 109.234375 321.101562 109.136719 321.335938 109.136719 C 321.667969 109.136719 321.863281 109.390625 321.863281 109.820312 Z M 321.863281 109.820312 "/>
<path style="fill-rule:nonzero;fill:rgb(40%,74.901961%,100%);fill-opacity:1;stroke-width:1;stroke-linecap:round;stroke-linejoin:round;stroke:rgb(0%,0%,0%);stroke-opacity:1;stroke-miterlimit:10;" d="M 491.2 408.4 L 512.2 408.4 L 512.2 429.4 L 491.2 429.4 Z M 491.2 408.4 " transform="matrix(1.25,0,0,1.25,-357.5,-461.25)"/>
<path style=" stroke:none;fill-rule:nonzero;fill:rgb(0%,0%,0%);fill-opacity:1;" d="M 270.816406 58.605469 L 268.726562 58.605469 L 268.726562 58.878906 C 269.351562 58.917969 269.429688 58.976562 269.429688 59.386719 C 269.429688 59.523438 269.390625 59.601562 269.253906 59.894531 L 267.515625 63.585938 L 267.144531 60.304688 C 267.105469 59.875 267.066406 59.621094 267.066406 59.484375 C 267.066406 59.054688 267.164062 58.9375 267.769531 58.878906 L 267.769531 58.605469 L 264.761719 58.605469 L 264.761719 58.859375 C 265.445312 58.957031 265.542969 59.152344 265.542969 60.050781 L 263.863281 63.585938 L 263.414062 59.660156 C 263.414062 59.601562 263.414062 59.503906 263.414062 59.445312 C 263.414062 59.09375 263.570312 58.957031 264.097656 58.878906 L 264.097656 58.605469 L 260.972656 58.605469 L 260.972656 58.859375 C 261.695312 58.996094 261.734375 59.09375 261.851562 59.894531 L 262.730469 66.320312 L 263.042969 66.320312 L 265.679688 60.832031 L 266.34375 66.320312 L 266.65625 66.320312 L 269.839844 59.796875 C 270.210938 59.035156 270.347656 58.9375 270.816406 58.859375 Z M 270.816406 58.605469 "/>
<path style=" stroke:none;fill-rule:nonzero;fill:rgb(0%,0%,0%);fill-opacity:1;" d="M 272.535156 62.335938 C 271.480469 61.457031 271.246094 60.617188 271.246094 59.210938 C 271.246094 57.765625 271.480469 57.0625 272.535156 56.183594 L 272.457031 56.046875 C 271.265625 56.769531 270.601562 57.84375 270.601562 59.230469 C 270.601562 60.519531 271.246094 61.769531 272.4375 62.453125 Z M 272.535156 62.335938 "/>
<path style=" stroke:none;fill-rule:nonzero;fill:rgb(0%,0%,0%);fill-opacity:1;" d="M 276.304688 60.089844 L 276.207031 60.050781 C 275.953125 60.480469 275.796875 60.558594 275.484375 60.558594 L 273.726562 60.558594 L 274.957031 59.230469 C 275.621094 58.527344 275.914062 57.960938 275.914062 57.375 C 275.914062 56.632812 275.386719 56.046875 274.527344 56.046875 C 273.609375 56.046875 273.140625 56.671875 272.984375 57.550781 L 273.140625 57.589844 C 273.433594 56.847656 273.6875 56.613281 274.234375 56.613281 C 274.878906 56.613281 275.269531 56.984375 275.269531 57.667969 C 275.269531 58.3125 275.015625 58.878906 274.292969 59.621094 L 272.964844 61.027344 L 272.964844 61.125 L 275.894531 61.125 Z M 276.304688 60.089844 "/>
<path style=" stroke:none;fill-rule:nonzero;fill:rgb(0%,0%,0%);fill-opacity:1;" d="M 276.714844 56.183594 C 277.808594 57.023438 277.984375 57.882812 277.984375 59.289062 C 277.984375 60.753906 277.789062 61.457031 276.714844 62.335938 L 276.792969 62.453125 C 277.984375 61.730469 278.628906 60.65625 278.628906 59.269531 C 278.628906 58 277.945312 56.75 276.8125 56.046875 Z M 276.714844 56.183594 "/>
<path style=" stroke:none;fill-rule:nonzero;fill:rgb(69.803922%,85.098039%,100%);fill-opacity:1;" d="M 279.3125 101.59375 C 284.4375 106.71875 284.4375 115.03125 279.3125 120.15625 C 274.183594 125.28125 265.875 125.28125 260.75 120.15625 C 255.625 115.03125 255.625 106.71875 260.75 101.59375 C 265.875 96.46875 274.183594 96.46875 279.3125 101.59375 "/>
<path style="fill:none;stroke-width:1;stroke-linecap:round;stroke-linejoin:round;stroke:rgb(0%,0%,0%);stroke-opacity:1;stroke-miterlimit:10;" d="M 509.45 450.278125 C 513.55 454.375 513.55 461.025 509.45 465.125 C 505.346875 469.225 498.7 469.225 494.6 465.125 C 490.5 461.025 490.5 454.375 494.6 450.278125 C 498.7 446.175 505.346875 446.175 509.45 450.278125 " transform="matrix(1.25,0,0,1.25,-357.5,-461.25)"/>
<path style=" stroke:none;fill-rule:nonzero;fill:rgb(0%,0%,0%);fill-opacity:1;" d="M 267.789062 112.90625 L 266.988281 112.90625 L 269.605469 109.859375 L 266.988281 106.851562 L 267.847656 106.851562 L 270.035156 109.136719 L 272.300781 106.851562 L 273.082031 106.851562 L 270.425781 109.859375 L 273.082031 112.90625 L 272.222656 112.90625 L 270.035156 110.464844 Z M 267.789062 112.90625 "/>
<path style="fill-rule:nonzero;fill:rgb(100%,100%,100%);fill-opacity:1;stroke-width:1;stroke-linecap:round;stroke-linejoin:round;stroke:rgb(0%,0%,0%);stroke-opacity:1;stroke-miterlimit:10;" d="M 573.175 408.4 L 594.175 408.4 L 594.175 429.4 L 573.175 429.4 Z M 573.175 408.4 " transform="matrix(1.25,0,0,1.25,-357.5,-461.25)"/>
<path style=" stroke:none;fill-rule:nonzero;fill:rgb(0%,0%,0%);fill-opacity:1;" d="M 372.332031 63.410156 C 372.136719 62.414062 371.550781 60.539062 371.375 60.539062 L 371.335938 60.539062 C 370.730469 60.636719 370.359375 60.695312 370.125 60.734375 C 370.007812 60.773438 369.890625 60.792969 369.773438 60.8125 L 369.773438 61.007812 C 369.890625 60.96875 369.988281 60.949219 370.105469 60.949219 C 370.574219 60.949219 370.769531 61.125 370.984375 61.671875 C 371.277344 62.433594 371.902344 64.953125 371.902344 65.402344 C 371.902344 65.539062 371.863281 65.675781 371.785156 65.8125 C 371.707031 65.949219 371.199219 66.613281 370.984375 66.828125 C 370.730469 67.101562 370.59375 67.199219 370.457031 67.199219 C 370.164062 67.199219 370.164062 66.886719 369.773438 66.886719 C 369.519531 66.886719 369.324219 67.082031 369.324219 67.335938 C 369.324219 67.628906 369.558594 67.824219 369.910156 67.824219 C 370.535156 67.824219 371.746094 66.515625 372.917969 64.582031 C 373.855469 63.039062 374.382812 61.789062 374.382812 61.164062 C 374.382812 60.8125 374.148438 60.539062 373.796875 60.539062 C 373.542969 60.539062 373.347656 60.714844 373.347656 60.949219 C 373.347656 61.144531 373.425781 61.242188 373.640625 61.398438 C 373.855469 61.535156 373.933594 61.59375 373.933594 61.75 C 373.933594 62.257812 373.523438 63.058594 372.566406 64.640625 Z M 372.332031 63.410156 "/>
<path style=" stroke:none;fill-rule:nonzero;fill:rgb(69.803922%,85.098039%,100%);fill-opacity:1;" d="M 381.371094 101.59375 C 386.5 106.71875 386.5 115.03125 381.371094 120.15625 C 376.25 125.28125 367.9375 125.28125 362.8125 120.15625 C 357.6875 115.03125 357.6875 106.71875 362.8125 101.59375 C 367.9375 96.46875 376.25 96.46875 381.371094 101.59375 "/>
<path style="fill:none;stroke-width:1;stroke-linecap:round;stroke-linejoin:round;stroke:rgb(0%,0%,0%);stroke-opacity:1;stroke-miterlimit:10;" d="M 591.096875 450.278125 C 595.2 454.375 595.2 461.025 591.096875 465.125 C 587 469.225 580.35 469.225 576.25 465.125 C 572.15 461.025 572.15 454.375 576.25 450.278125 C 580.35 446.175 587 446.175 591.096875 450.278125 " transform="matrix(1.25,0,0,1.25,-357.5,-461.25)"/>
<path style=" stroke:none;fill-rule:nonzero;fill:rgb(0%,0%,0%);fill-opacity:1;" d="M 369.695312 109.625 C 370.007812 109.839844 370.359375 109.9375 370.691406 109.957031 C 370.535156 110.191406 370.378906 110.445312 370.242188 110.699219 C 369.714844 111.617188 369.382812 112.535156 369.382812 113.140625 C 369.382812 113.804688 369.832031 114.117188 370.359375 114.117188 C 371.0625 114.117188 371.726562 113.492188 372.917969 112.105469 L 372.664062 111.910156 C 371.589844 113.160156 370.964844 113.785156 370.4375 113.785156 C 370.125 113.785156 370.027344 113.570312 370.027344 113.296875 C 370.027344 112.554688 371.042969 110.894531 371.628906 109.957031 C 373.621094 109.664062 375.261719 108.199219 375.261719 107.027344 C 375.261719 106.5 375.007812 106.265625 374.539062 106.265625 C 373.621094 106.265625 372.097656 107.867188 370.925781 109.605469 C 370.574219 109.605469 370.222656 109.585938 369.851562 109.332031 Z M 371.84375 109.546875 C 372.429688 108.628906 373.054688 107.730469 373.601562 107.164062 C 373.894531 106.871094 374.207031 106.636719 374.519531 106.636719 C 374.792969 106.636719 374.929688 106.773438 374.929688 106.988281 C 374.929688 108.0625 373.621094 109.15625 371.863281 109.546875 Z M 371.84375 109.546875 "/>
<path style="fill-rule:nonzero;fill:rgb(100%,100%,100%);fill-opacity:1;stroke-width:1;stroke-linecap:round;stroke-linejoin:round;stroke:rgb(0%,0%,0%);stroke-opacity:1;stroke-miterlimit:10;" d="M 532.35 408.4 L 553.35 408.4 L 553.35 429.4 L 532.35 429.4 Z M 532.35 408.4 " transform="matrix(1.25,0,0,1.25,-357.5,-461.25)"/>
<path style=" stroke:none;fill-rule:nonzero;fill:rgb(0%,0%,0%);fill-opacity:1;" d="M 324.222656 63.46875 L 323.988281 63.410156 C 323.675781 64.054688 323.441406 64.425781 323.070312 64.660156 C 322.523438 65.03125 322.171875 65.089844 321.058594 65.089844 C 320.121094 65.089844 319.867188 64.992188 319.867188 64.640625 C 319.867188 64.484375 319.90625 64.289062 319.984375 64.035156 L 321.332031 59.191406 C 321.507812 58.566406 321.800781 58.371094 322.464844 58.332031 L 322.464844 58.15625 L 319.398438 58.15625 L 319.398438 58.332031 C 320.101562 58.371094 320.257812 58.488281 320.257812 58.820312 C 320.257812 58.976562 320.238281 59.210938 320.140625 59.523438 L 318.773438 64.445312 C 318.558594 65.148438 318.480469 65.246094 317.835938 65.324219 L 317.835938 65.5 L 323.578125 65.5 Z M 324.222656 63.46875 "/>
<path style="fill:none;stroke-width:1;stroke-linecap:round;stroke-linejoin:round;stroke:rgb(0%,0%,0%);stroke-opacity:1;stroke-miterlimit:10;" d="M 308.4 457.7 L 322.325 457.7 " transform="matrix(1.25,0,0,1.25,-357.5,-461.25)"/>
<path style="fill:none;stroke-width:1;stroke-linecap:butt;stroke-linejoin:miter;stroke:rgb(0%,0%,0%);stroke-opacity:1;stroke-miterlimit:10;" d="M 326.325 457.7 L 322.325 457.7 M 322.325 456.2 L 326.325 457.7 L 322.325 459.2 " transform="matrix(1.25,0,0,1.25,-357.5,-461.25)"/>
<path style="fill:none;stroke-width:1;stroke-linecap:round;stroke-linejoin:round;stroke:rgb(0%,0%,0%);stroke-opacity:1;stroke-miterlimit:10;" d="M 338.725 429.4 L 338.725 441.3 " transform="matrix(1.25,0,0,1.25,-357.5,-461.25)"/>
<path style="fill:none;stroke-width:1;stroke-linecap:butt;stroke-linejoin:miter;stroke:rgb(0%,0%,0%);stroke-opacity:1;stroke-miterlimit:10;" d="M 338.725 445.3 L 338.725 441.3 M 340.225 441.3 L 338.725 445.3 L 337.225 441.3 " transform="matrix(1.25,0,0,1.25,-357.5,-461.25)"/>
<path style="fill:none;stroke-width:1;stroke-linecap:round;stroke-linejoin:round;stroke:rgb(0%,0%,0%);stroke-opacity:1;stroke-miterlimit:10;" d="M 349.225 457.7 L 363.15 457.7 " transform="matrix(1.25,0,0,1.25,-357.5,-461.25)"/>
<path style="fill:none;stroke-width:1;stroke-linecap:butt;stroke-linejoin:miter;stroke:rgb(0%,0%,0%);stroke-opacity:1;stroke-miterlimit:10;" d="M 367.15 457.7 L 363.15 457.7 M 363.15 456.2 L 367.15 457.7 L 363.15 459.2 " transform="matrix(1.25,0,0,1.25,-357.5,-461.25)"/>
<path style="fill:none;stroke-width:1;stroke-linecap:round;stroke-linejoin:round;stroke:rgb(0%,0%,0%);stroke-opacity:1;stroke-miterlimit:10;" d="M 390.05 457.7 L 403.975 457.7 " transform="matrix(1.25,0,0,1.25,-357.5,-461.25)"/>
<path style="fill:none;stroke-width:1;stroke-linecap:butt;stroke-linejoin:miter;stroke:rgb(0%,0%,0%);stroke-opacity:1;stroke-miterlimit:10;" d="M 407.975 457.7 L 403.975 457.7 M 403.975 456.2 L 407.975 457.7 L 403.975 459.2 " transform="matrix(1.25,0,0,1.25,-357.5,-461.25)"/>
<path style="fill:none;stroke-width:1;stroke-linecap:round;stroke-linejoin:round;stroke:rgb(0%,0%,0%);stroke-opacity:1;stroke-miterlimit:10;" d="M 430.875 457.7 L 444.8 457.7 " transform="matrix(1.25,0,0,1.25,-357.5,-461.25)"/>
<path style="fill:none;stroke-width:1;stroke-linecap:butt;stroke-linejoin:miter;stroke:rgb(0%,0%,0%);stroke-opacity:1;stroke-miterlimit:10;" d="M 448.8 457.7 L 444.8 457.7 M 444.8 456.2 L 448.8 457.7 L 444.8 459.2 " transform="matrix(1.25,0,0,1.25,-357.5,-461.25)"/>
<path style="fill:none;stroke-width:1;stroke-linecap:round;stroke-linejoin:round;stroke:rgb(0%,0%,0%);stroke-opacity:1;stroke-miterlimit:10;" d="M 501.784375 429.4 L 501.8875 441.3 " transform="matrix(1.25,0,0,1.25,-357.5,-461.25)"/>
<path style="fill:none;stroke-width:1;stroke-linecap:butt;stroke-linejoin:miter;stroke:rgb(0%,0%,0%);stroke-opacity:1;stroke-miterlimit:10;" d="M 501.921875 445.3 L 501.8875 441.3 M 503.3875 441.2875 L 501.921875 445.3 L 500.3875 441.3125 " transform="matrix(1.25,0,0,1.25,-357.5,-461.25)"/>
<path style="fill:none;stroke-width:1;stroke-linecap:round;stroke-linejoin:round;stroke:rgb(0%,0%,0%);stroke-opacity:1;stroke-miterlimit:10;" d="M 471.7 457.7 L 485.625 457.7 " transform="matrix(1.25,0,0,1.25,-357.5,-461.25)"/>
<path style="fill:none;stroke-width:1;stroke-linecap:butt;stroke-linejoin:miter;stroke:rgb(0%,0%,0%);stroke-opacity:1;stroke-miterlimit:10;" d="M 489.625 457.7 L 485.625 457.7 M 485.625 456.2 L 489.625 457.7 L 485.625 459.2 " transform="matrix(1.25,0,0,1.25,-357.5,-461.25)"/>
<path style="fill:none;stroke-width:1;stroke-linecap:round;stroke-linejoin:round;stroke:rgb(0%,0%,0%);stroke-opacity:1;stroke-miterlimit:10;" d="M 512.525 457.7 L 526.45 457.7 " transform="matrix(1.25,0,0,1.25,-357.5,-461.25)"/>
<path style="fill:none;stroke-width:1;stroke-linecap:butt;stroke-linejoin:miter;stroke:rgb(0%,0%,0%);stroke-opacity:1;stroke-miterlimit:10;" d="M 530.45 457.7 L 526.45 457.7 M 526.45 456.2 L 530.45 457.7 L 526.45 459.2 " transform="matrix(1.25,0,0,1.25,-357.5,-461.25)"/>
<path style="fill:none;stroke-width:1;stroke-linecap:round;stroke-linejoin:round;stroke:rgb(0%,0%,0%);stroke-opacity:1;stroke-miterlimit:10;" d="M 553.35 457.7 L 567.275 457.7 " transform="matrix(1.25,0,0,1.25,-357.5,-461.25)"/>
<path style="fill:none;stroke-width:1;stroke-linecap:butt;stroke-linejoin:miter;stroke:rgb(0%,0%,0%);stroke-opacity:1;stroke-miterlimit:10;" d="M 571.275 457.7 L 567.275 457.7 M 567.275 456.2 L 571.275 457.7 L 567.275 459.2 " transform="matrix(1.25,0,0,1.25,-357.5,-461.25)"/>
<path style="fill:none;stroke-width:1;stroke-linecap:round;stroke-linejoin:round;stroke:rgb(0%,0%,0%);stroke-opacity:1;stroke-miterlimit:10;" d="M 583.675 429.4 L 583.675 441.3 " transform="matrix(1.25,0,0,1.25,-357.5,-461.25)"/>
<path style="fill:none;stroke-width:1;stroke-linecap:butt;stroke-linejoin:miter;stroke:rgb(0%,0%,0%);stroke-opacity:1;stroke-miterlimit:10;" d="M 583.675 445.3 L 583.675 441.3 M 585.175 441.3 L 583.675 445.3 L 582.175 441.3 " transform="matrix(1.25,0,0,1.25,-357.5,-461.25)"/>
<path style="fill:none;stroke-width:1;stroke-linecap:round;stroke-linejoin:round;stroke:rgb(0%,0%,0%);stroke-opacity:1;stroke-miterlimit:10;" d="M 576.0625 450.465625 L 557.625 432.94375 " transform="matrix(1.25,0,0,1.25,-357.5,-461.25)"/>
<path style="fill:none;stroke-width:1;stroke-linecap:butt;stroke-linejoin:miter;stroke:rgb(0%,0%,0%);stroke-opacity:1;stroke-miterlimit:10;" d="M 554.725 430.1875 L 557.625 432.94375 M 556.59375 434.03125 L 554.725 430.1875 L 558.659375 431.85625 " transform="matrix(1.25,0,0,1.25,-357.5,-461.25)"/>
<path style="fill-rule:nonzero;fill:rgb(69.803922%,85.098039%,100%);fill-opacity:1;stroke-width:1;stroke-linecap:round;stroke-linejoin:round;stroke:rgb(0%,0%,0%);stroke-opacity:1;stroke-miterlimit:10;" d="M 427.8 411.475 C 431.903125 415.575 431.903125 422.221875 427.8 426.325 C 423.7 430.425 417.05 430.425 412.95 426.325 C 408.85 422.221875 408.85 415.575 412.95 411.475 C 417.05 407.375 423.7 407.375 427.8 411.475 " transform="matrix(1.25,0,0,1.25,-357.5,-461.25)"/>
<path style=" stroke:none;fill-rule:nonzero;fill:rgb(0%,0%,0%);fill-opacity:1;" d="M 168.941406 61.59375 L 168.707031 61.535156 C 168.394531 62.179688 168.160156 62.550781 167.789062 62.785156 C 167.242188 63.15625 166.890625 63.214844 165.777344 63.214844 C 164.839844 63.214844 164.585938 63.117188 164.585938 62.765625 C 164.585938 62.609375 164.625 62.414062 164.703125 62.160156 L 166.050781 57.316406 C 166.226562 56.691406 166.519531 56.496094 167.183594 56.457031 L 167.183594 56.28125 L 164.117188 56.28125 L 164.117188 56.457031 C 164.820312 56.496094 164.976562 56.613281 164.976562 56.945312 C 164.976562 57.101562 164.957031 57.335938 164.859375 57.648438 L 163.492188 62.570312 C 163.277344 63.273438 163.199219 63.371094 162.554688 63.449219 L 162.554688 63.625 L 168.296875 63.625 Z M 168.941406 61.59375 "/>
<path style=" stroke:none;fill-rule:nonzero;fill:rgb(0%,0%,0%);fill-opacity:1;" d="M 169.789062 64.191406 C 170.101562 63.605469 170.550781 63.351562 171.078125 63.351562 C 171.761719 63.351562 172.113281 63.800781 172.113281 64.40625 C 172.113281 64.601562 172.09375 64.757812 172.035156 64.875 C 171.820312 65.34375 171.429688 65.910156 170.84375 66.515625 L 169.007812 68.46875 L 169.007812 68.625 L 172.113281 68.625 L 172.542969 67.453125 L 172.40625 67.394531 C 172.191406 67.824219 172.015625 67.960938 171.507812 67.960938 L 169.925781 67.960938 L 169.925781 67.921875 L 171.566406 66.242188 C 172.601562 65.167969 172.855469 64.777344 172.855469 64.191406 C 172.855469 63.351562 172.289062 62.707031 171.449219 62.707031 C 171.039062 62.707031 170.667969 62.824219 170.335938 63.078125 C 170.023438 63.3125 169.828125 63.605469 169.613281 64.132812 Z M 169.789062 64.191406 "/>
<path style="fill:none;stroke-width:1;stroke-linecap:round;stroke-linejoin:round;stroke:rgb(0%,0%,0%);stroke-opacity:1;stroke-miterlimit:10;" d="M 349.225 418.9 L 403.975 418.9 " transform="matrix(1.25,0,0,1.25,-357.5,-461.25)"/>
<path style="fill:none;stroke-width:1;stroke-linecap:butt;stroke-linejoin:miter;stroke:rgb(0%,0%,0%);stroke-opacity:1;stroke-miterlimit:10;" d="M 407.975 418.9 L 403.975 418.9 M 403.975 417.4 L 407.975 418.9 L 403.975 420.4 " transform="matrix(1.25,0,0,1.25,-357.5,-461.25)"/>
<path style="fill:none;stroke-width:1;stroke-linecap:round;stroke-linejoin:round;stroke:rgb(0%,0%,0%);stroke-opacity:1;stroke-miterlimit:10;" d="M 491.2 418.9 L 436.778125 418.9 " transform="matrix(1.25,0,0,1.25,-357.5,-461.25)"/>
<path style="fill:none;stroke-width:1;stroke-linecap:butt;stroke-linejoin:miter;stroke:rgb(0%,0%,0%);stroke-opacity:1;stroke-miterlimit:10;" d="M 432.778125 418.9 L 436.778125 418.9 M 436.778125 420.4 L 432.778125 418.9 L 436.778125 417.4 " transform="matrix(1.25,0,0,1.25,-357.5,-461.25)"/>
<path style="fill-rule:nonzero;fill:rgb(100%,100%,100%);fill-opacity:1;stroke-width:1;stroke-linecap:round;stroke-linejoin:round;stroke:rgb(0%,0%,0%);stroke-opacity:1;stroke-miterlimit:10;" d="M 409.875 369.6 L 430.875 369.6 L 430.875 390.6 L 409.875 390.6 Z M 409.875 369.6 " transform="matrix(1.25,0,0,1.25,-357.5,-461.25)"/>
<path style=" stroke:none;fill-rule:nonzero;fill:rgb(0%,0%,0%);fill-opacity:1;" d="M 169.902344 12.019531 L 169.746094 12.019531 C 169.648438 12.175781 169.570312 12.234375 169.394531 12.234375 C 169.316406 12.234375 169.21875 12.214844 169.003906 12.15625 C 168.710938 12.078125 168.554688 12.039062 168.359375 12.039062 C 167.539062 12.039062 167.011719 12.507812 167.011719 13.25 C 167.011719 13.621094 167.226562 14.128906 167.714844 14.734375 C 168.164062 15.28125 168.339844 15.652344 168.339844 16.023438 C 168.339844 16.570312 168.027344 16.882812 167.5 16.882812 C 166.914062 16.882812 166.523438 16.433594 166.367188 15.359375 L 166.191406 15.359375 L 165.957031 17.136719 L 166.132812 17.136719 C 166.210938 16.960938 166.347656 16.902344 166.464844 16.902344 C 166.582031 16.902344 166.757812 16.921875 166.953125 17.019531 C 167.226562 17.117188 167.382812 17.117188 167.578125 17.117188 C 168.515625 17.117188 169.199219 16.550781 169.199219 15.613281 C 169.199219 15.183594 169.003906 14.734375 168.4375 14.089844 C 167.988281 13.5625 167.832031 13.25 167.832031 12.9375 C 167.832031 12.527344 168.105469 12.292969 168.496094 12.292969 C 169.042969 12.292969 169.375 12.664062 169.492188 13.601562 L 169.667969 13.601562 Z M 169.902344 12.019531 "/>
<path style="fill-rule:nonzero;fill:rgb(100%,100%,100%);fill-opacity:1;stroke-width:1;stroke-linecap:round;stroke-linejoin:round;stroke:rgb(0%,0%,0%);stroke-opacity:1;stroke-miterlimit:10;" d="M 573.175 369.6 L 594.175 369.6 L 594.175 390.6 L 573.175 390.6 Z M 573.175 369.6 " transform="matrix(1.25,0,0,1.25,-357.5,-461.25)"/>
<path style=" stroke:none;fill-rule:nonzero;fill:rgb(0%,0%,0%);fill-opacity:1;" d="M 375.125 9.65625 L 372.273438 9.65625 L 372.273438 9.832031 C 372.976562 9.910156 373.132812 9.988281 373.132812 10.300781 C 373.132812 10.457031 373.09375 10.691406 372.996094 11.023438 L 371.570312 16.121094 C 371.433594 16.570312 371.238281 16.84375 370.964844 16.84375 C 370.691406 16.84375 370.574219 16.726562 370.574219 16.394531 C 370.574219 16.296875 370.613281 16.238281 370.613281 16.101562 C 370.613281 15.828125 370.339844 15.574219 370.027344 15.574219 C 369.734375 15.574219 369.539062 15.847656 369.539062 16.21875 C 369.539062 16.804688 370.066406 17.195312 370.847656 17.195312 C 371.414062 17.195312 371.921875 17.019531 372.234375 16.589844 C 372.527344 16.199219 372.800781 15.652344 373.035156 14.792969 L 374.207031 10.671875 C 374.382812 9.988281 374.480469 9.929688 375.125 9.832031 Z M 375.125 9.65625 "/>
<path style="fill-rule:nonzero;fill:rgb(69.803922%,85.098039%,100%);fill-opacity:1;stroke-width:1;stroke-linecap:round;stroke-linejoin:round;stroke:rgb(0%,0%,0%);stroke-opacity:1;stroke-miterlimit:10;" d="M 509.125 372.675 C 513.221875 376.778125 513.221875 383.425 509.125 387.525 C 505.025 391.625 498.375 391.625 494.275 387.525 C 490.171875 383.425 490.171875 376.778125 494.275 372.675 C 498.375 368.575 505.025 368.575 509.125 372.675 " transform="matrix(1.25,0,0,1.25,-357.5,-461.25)"/>
<path style=" stroke:none;fill-rule:nonzero;fill:rgb(0%,0%,0%);fill-opacity:1;" d="M 272.46875 14.519531 L 272.46875 13.777344 L 270.007812 13.777344 L 270.007812 11.316406 L 269.265625 11.316406 L 269.265625 13.777344 L 266.804688 13.777344 L 266.804688 14.519531 L 269.265625 14.519531 L 269.265625 17 L 270.007812 17 L 270.007812 14.519531 Z M 272.46875 14.519531 "/>
<path style="fill:none;stroke-width:1;stroke-linecap:round;stroke-linejoin:round;stroke:rgb(0%,0%,0%);stroke-opacity:1;stroke-miterlimit:10;" d="M 420.6 407.8 L 420.50625 396.5 " transform="matrix(1.25,0,0,1.25,-357.5,-461.25)"/>
<path style="fill:none;stroke-width:1;stroke-linecap:butt;stroke-linejoin:miter;stroke:rgb(0%,0%,0%);stroke-opacity:1;stroke-miterlimit:10;" d="M 420.475 392.5 L 420.50625 396.5 M 419.00625 396.5125 L 420.475 392.5 L 422.00625 396.4875 " transform="matrix(1.25,0,0,1.25,-357.5,-461.25)"/>
<path style="fill:none;stroke-width:1;stroke-linecap:round;stroke-linejoin:round;stroke:rgb(0%,0%,0%);stroke-opacity:1;stroke-miterlimit:10;" d="M 430.875 380.1 L 485.296875 380.1 " transform="matrix(1.25,0,0,1.25,-357.5,-461.25)"/>
<path style="fill:none;stroke-width:1;stroke-linecap:butt;stroke-linejoin:miter;stroke:rgb(0%,0%,0%);stroke-opacity:1;stroke-miterlimit:10;" d="M 489.296875 380.1 L 485.296875 380.1 M 485.296875 378.6 L 489.296875 380.1 L 485.296875 381.6 " transform="matrix(1.25,0,0,1.25,-357.5,-461.25)"/>
<path style="fill:none;stroke-width:1;stroke-linecap:round;stroke-linejoin:round;stroke:rgb(0%,0%,0%);stroke-opacity:1;stroke-miterlimit:10;" d="M 532.35 409 L 513.63125 391.35 " transform="matrix(1.25,0,0,1.25,-357.5,-461.25)"/>
<path style="fill:none;stroke-width:1;stroke-linecap:butt;stroke-linejoin:miter;stroke:rgb(0%,0%,0%);stroke-opacity:1;stroke-miterlimit:10;" d="M 510.721875 388.60625 L 513.63125 391.35 M 512.6 392.440625 L 510.721875 388.60625 L 514.659375 390.25625 " transform="matrix(1.25,0,0,1.25,-357.5,-461.25)"/>
<path style="fill:none;stroke-width:1;stroke-linecap:round;stroke-linejoin:round;stroke:rgb(0%,0%,0%);stroke-opacity:1;stroke-miterlimit:10;" d="M 512.2 380.1 L 567.275 380.1 " transform="matrix(1.25,0,0,1.25,-357.5,-461.25)"/>
<path style="fill:none;stroke-width:1;stroke-linecap:butt;stroke-linejoin:miter;stroke:rgb(0%,0%,0%);stroke-opacity:1;stroke-miterlimit:10;" d="M 571.275 380.1 L 567.275 380.1 M 567.275 378.6 L 571.275 380.1 L 567.275 381.6 " transform="matrix(1.25,0,0,1.25,-357.5,-461.25)"/>
</g>
</svg>
